<?xml version="1.0" encoding="UTF-8"?>
<svg xmlns="http://www.w3.org/2000/svg" xmlns:xlink="http://www.w3.org/1999/xlink" viewBox="0 0 17 17" width="17px" height="17px">
<g id="surface11850800">
<path style=" stroke:none;fill-rule:nonzero;fill:rgb(92.156863%,34.117648%,34.117648%);fill-opacity:1;" d="M 6.375 1.417969 C 3.644531 1.417969 1.417969 3.644531 1.417969 6.375 C 1.417969 9.105469 3.644531 11.332031 6.375 11.332031 C 7.613281 11.332031 8.746094 10.871094 9.613281 10.117188 L 9.917969 10.417969 L 9.917969 11.332031 L 14.167969 15.582031 L 15.582031 14.167969 L 11.332031 9.917969 L 10.417969 9.917969 L 10.117188 9.613281 C 10.871094 8.746094 11.332031 7.613281 11.332031 6.375 C 11.332031 3.644531 9.105469 1.417969 6.375 1.417969 Z M 6.375 2.832031 C 8.339844 2.832031 9.917969 4.410156 9.917969 6.375 C 9.917969 8.339844 8.339844 9.917969 6.375 9.917969 C 4.410156 9.917969 2.832031 8.339844 2.832031 6.375 C 2.832031 4.410156 4.410156 2.832031 6.375 2.832031 Z M 6.375 2.832031 "/>
</g>
</svg>
